<?xml version="1.0" encoding="UTF-8"?>
<svg id="Layer_1" data-name="Layer 1" xmlns="http://www.w3.org/2000/svg" viewBox="0 0 1206 300">
  <defs>
    <style>
      .cls-1 {
        fill: #0000e6;
      }

      .cls-2 {
        fill: #ff00cd;
        opacity: .7;
      }
    </style>
  </defs>
  <g>
    <path class="cls-1" d="M471.88,145.25v81.97h-40.06v-76.09c0-16.55-10.42-24.3-23.23-24.3-14.69,0-24.84,8.54-24.84,27.5v72.89h-40.06V93.72h40.06v12.55c7.21-9.88,20.56-16.29,38.19-16.29,26.97,0,49.94,19.22,49.94,55.27Z"/>
    <path class="cls-1" d="M567.21,195.18c10.95,0,20.3-4.27,25.64-10.15l32.05,18.42c-13.09,18.15-32.85,27.5-58.22,27.5-45.67,0-73.98-30.71-73.98-70.49s28.84-70.49,71.04-70.49c38.99,0,67.83,30.17,67.83,70.49,0,5.61-.53,10.95-1.6,16.02h-94.81c5.07,13.88,17.36,18.69,32.05,18.69Zm24.57-48.59c-4.27-15.49-16.29-21.09-28.31-21.09-15.22,0-25.37,7.48-29.11,21.09h57.42Z"/>
    <path class="cls-1" d="M789.94,93.72V227.22h-40.06v-12.55c-8.81,10.15-21.9,16.29-39.79,16.29-34.98,0-63.83-30.71-63.83-70.49s28.84-70.49,63.83-70.49c17.89,0,30.98,6.14,39.79,16.29v-12.55h40.06Zm-40.06,66.75c0-20.02-13.35-32.57-31.78-32.57s-31.78,12.55-31.78,32.57,13.35,32.57,31.78,32.57,31.78-12.55,31.78-32.57Z"/>
    <path class="cls-1" d="M899.43,91.05v45.39c-16.56-2.67-40.06,4-40.06,30.44v60.34h-40.06V93.72h40.06v23.76c5.34-17.89,23.23-26.43,40.06-26.43Z"/>
    <path class="cls-1" d="M1061.8,160.47c0,39.78-28.84,70.49-63.83,70.49-17.89,0-30.98-6.14-39.79-16.29v12.55h-40.06V40.32h40.06V106.27c8.81-10.15,21.9-16.29,39.79-16.29,34.98,0,63.83,30.71,63.83,70.49Zm-40.06,0c0-20.02-13.35-32.57-31.78-32.57s-31.78,12.55-31.78,32.57,13.35,32.57,31.78,32.57,31.78-12.55,31.78-32.57Z"/>
    <path class="cls-1" d="M1206,93.72l-45.67,129.49c-14.96,42.45-38.72,59.27-76.11,57.4v-37.38c18.69,0,27.51-5.87,33.38-22.16l-53.14-127.36h44.06l29.64,81.7,25.1-81.7h42.73Z"/>
  </g>
  <g>
    <path class="cls-1" d="M212.14,36.35C187.91,12.12,156.08,0,124.25,0S60.58,12.11,36.35,36.34c-48.47,48.46-48.47,127.31,0,175.77l87.9,87.88,87.9-87.88c48.47-48.46,48.47-127.31,0-175.77Zm-87.9,112.75c-13.72,0-24.85-11.13-24.85-24.85s11.13-24.85,24.85-24.85,24.85,11.13,24.85,24.85-11.13,24.85-24.85,24.85Z"/>
    <path class="cls-2" d="M176.96,71.53c-29.11-29.11-76.31-29.11-105.43,0s-29.11,76.32,0,105.43l123.03,123.04h.01l105.42-105.42-123.04-123.04Zm-52.71,77.56c-13.72,0-24.85-11.13-24.85-24.85s11.13-24.85,24.85-24.85,24.85,11.13,24.85,24.85-11.13,24.85-24.85,24.85Z"/>
  </g>
</svg>